<svg xmlns="http://www.w3.org/2000/svg" viewBox="0 0 421.8 72"><g fill="#666"><path d="M27.7 64c-.1.2-.5.8-1.2 1.6-.8.9-1.3 1.4-1.6 1.4-.2 0-.3-.1-.2-.4.1-.7.3-1.4.8-2.3s1.1-1.3 1.8-1.3c.3 0 .5.1.8.2zm1.7-2.6h-2c-1.2 0-2.5.7-3.6 2-1.1 1.2-1.8 2.6-1.9 3.8 0 .5 0 .9.3 1.3s.6.6 1.1.6c.7 0 1.4-.4 2.2-1.2.6-.6 1.1-1.3 1.5-2.2h.2l-1 3.2h2.6l2.3-7.7c-.4.3-.9.3-1.7.2zM45.7 64c-.1.3-.5.8-1.2 1.6s-1.3 1.2-1.5 1.2-.2-.1-.2-.4c.1-.7.3-1.4.7-2.2.5-.9 1-1.3 1.6-1.3.3 0 .5.1.8.2zm1.6-2.6h-1.8c-1.2 0-2.5.6-3.6 1.9-1.1 1.2-1.8 2.5-1.9 3.8 0 .5 0 1 .3 1.3.3.4.7.6 1.2.6 1.2 0 2.5-1 3.6-3.1h.3c-.2.6-.4 1.1-.5 1.8-.3.8-.5 1.4-.8 1.9-.4.6-.9.8-1.5.8-.8 0-2-.3-3.1-.9l.2 2.3c.6.1 1.4.2 2.4.2 2.7 0 4.4-1.1 5-3.4l2.1-7.2h-1.9zM52.1 65.2c.1-.4.3-.8.6-1.2.3-.5.7-.7 1.1-.7s.5.2.5.5c-.1.8-.8 1.4-2.2 1.4zm.8 2.5c-.8 0-1.2-.4-1.2-1.1 1 0 2.1-.3 3.1-.9 1.1-.7 1.8-1.5 1.9-2.6 0-.5-.1-.9-.5-1.2s-.8-.4-1.3-.4c-1.3 0-2.7.5-3.8 1.6-1.1 1-1.8 2.3-2 3.7-.1.8.2 1.4.8 2 .5.4 1.2.6 2.1.6 1 0 2.4-.3 3.9-.8l.5-1.9c-1.3.7-2.5 1-3.5 1zM64.6 61.6l-.5 1.6c-.6-.1-1.2-.2-1.7-.2-.7 0-1 .2-1.1.6 0 .2.1.5.5.8.6.5.9.8 1 1 .3.4.5.9.4 1.3-.1.8-.5 1.5-1.3 2-.6.3-1.4.5-2.4.5-.7 0-1.5-.1-2.6-.4l.5-1.8c.9.4 1.8.7 2.3.7.2 0 .4-.1.6-.2s.3-.3.3-.5c0-.3-.1-.6-.4-.9s-.6-.7-.9-1c-.3-.4-.4-.9-.4-1.3.1-.8.5-1.4 1.3-1.9.6-.3 1.3-.5 2.3-.5.1 0 .9.1 2.1.2zM77.8 58.7l-.4 1.6c-.6-.3-1.1-.4-1.6-.4s-.8.2-1.1.5c-.1.2-.2.6-.4 1.2h2l-.4 1.5h-2l-2.3 7.7H69l2.7-9.3c.4-1 .9-1.9 1.6-2.5.8-.6 1.6-.9 2.7-.9.5.2 1.2.4 1.8.6zM80.9 66.6c-.5.8-1 1.1-1.8 1.1-.3 0-.6-.1-.7-.4-.1-.2-.2-.5-.1-.9.1-.7.3-1.4.7-2.2.5-.8 1-1.1 1.8-1.1.3 0 .6.1.7.4.1.2.2.5.1.9-.1.8-.3 1.6-.7 2.2zm2.5-4.5c-.5-.4-1.2-.6-2.1-.6-1.4 0-2.7.5-3.8 1.6-1.1 1-1.8 2.3-2 3.7-.1.8.2 1.4.8 2 .5.4 1.2.6 2.1.6 1.3 0 2.7-.5 3.8-1.6s1.9-2.4 2-3.7c.1-.9-.2-1.5-.8-2zM92.5 61.5l-.7 2.4c-.2-.1-.7-.1-.9-.1-.4 0-1.1.4-1.9 1.2s-1.2 1.4-1.3 1.9l-.8 2.4h-2.6l2.3-7.7h2.6l-1.1 3.3h.2c.4-.8.9-1.5 1.5-2.2.8-.8 1.5-1.2 2.2-1.2.2 0 .3-.1.5 0zM102.7 61.6l-.4 1.5h-1.2c-.2.6-.4 1.2-.6 1.9-.2.8-.4 1.4-.4 2s.1.7.5.7c.2 0 .5-.1.8-.3l-.5 1.6c-.8.2-1.4.3-2 .3s-1-.1-1.3-.4c-.4-.3-.5-.7-.5-1.2.1-.6.2-1.3.5-2.4.3-.7 1.5-4.9 1.5-4.9l2.7-.4-.4 1.5zM114.8 65.2c.1-.4.3-.8.6-1.2.3-.5.7-.7 1.1-.7s.5.2.5.5c-.1.8-.8 1.4-2.2 1.4zm.9 2.5c-.8 0-1.3-.4-1.2-1.1 1 0 2.1-.3 3.1-.9 1.1-.7 1.8-1.5 1.9-2.6 0-.5-.1-.9-.5-1.2-.3-.3-.8-.4-1.3-.4-1.3 0-2.7.5-3.8 1.6-1.1 1-1.8 2.3-2 3.7-.1.8.2 1.4.8 2 .5.4 1.2.6 2.1.6 1 0 2.4-.3 3.9-.8l.5-1.9c-1.5.7-2.6 1-3.5 1zM140 65.2c.1-.4.3-.8.6-1.2.3-.5.7-.7 1.1-.7s.5.2.5.5c0 .8-.8 1.4-2.2 1.4zm.9 2.5c-.8 0-1.3-.4-1.2-1.1 1 0 2.1-.3 3.1-.9 1.1-.7 1.8-1.5 1.9-2.6 0-.5-.1-.9-.5-1.2-.3-.3-.8-.4-1.3-.4-1.4 0-2.7.5-3.8 1.6-1.1 1-1.8 2.3-2 3.7-.1.8.2 1.4.8 2 .5.4 1.2.6 2.1.6 1 0 2.4-.3 3.9-.8l.5-1.9c-1.4.7-2.6 1-3.5 1zM151.1 61.5l-.4 1.5h-1.2c-.2.6-.4 1.4-.6 2.1-.2.8-.4 1.4-.4 2s.1.7.5.7c.2 0 .5-.1.8-.3l-.5 1.6c-.8.2-1.4.3-2 .3-.5 0-.9-.1-1.3-.4s-.5-.7-.5-1.2c.1-.6.2-1.3.5-2.4.2-.7 1.5-4.9 1.5-4.9l2.7-.4-.4 1.4zM156.8 61.5l-.4 1.5h-1.2c-.2.6-.4 1.4-.7 2.1-.3.8-.4 1.4-.4 2s.1.7.5.7c.3 0 .5-.1.8-.3l-.5 1.6c-.9.2-1.5.3-2 .3s-1-.1-1.3-.4c-.4-.3-.5-.7-.4-1.2 0-.6.2-1.3.5-2.4.2-.7 1.5-4.9 1.5-4.9l2.8-.4-.4 1.4zM159.5 65.2c.1-.4.3-.8.6-1.2.3-.5.7-.7 1.1-.7s.5.2.5.5c-.2.8-.9 1.4-2.2 1.4zm.9 2.5c-.8 0-1.2-.4-1.2-1.1 1 0 2.1-.3 3.1-.9 1.1-.7 1.8-1.5 1.9-2.6 0-.5-.1-.9-.5-1.2-.3-.3-.8-.4-1.3-.4-1.3 0-2.7.5-3.8 1.6-1.1 1-1.8 2.3-2 3.7-.1.8.2 1.4.8 2 .5.4 1.2.6 2.1.6 1 0 2.4-.3 3.9-.8l.5-1.9c-1.5.7-2.6 1-3.5 1zM.2 65c-.3 3 1.5 4.8 5 4.8 2 0 3.8-.3 5.5-.7.1-.2.4-1.4.6-1.9-.1 0-.3.1-.3.1-1.3.4-2.8.8-4.1.8-2.1 0-3.4-1.4-3.2-3.5.3-3.1 2.8-6.5 6.1-6.5 1.2 0 2.6.3 3.8.8.1-.3.5-1.6.6-2.1-1.3-.3-2.7-.5-4-.5-6 .2-9.7 5.1-10 8.7zM129.9 63.7c1.4 0 3.1.3 3 2.1-.1 1.5-1.5 2-2.9 2-.4 0-.8 0-1.2-.1zm1.6-5.3c.3-.1.6-.1.9-.1.8 0 1.9.1 1.8 1-.2 1.9-2 2.5-2.6 2.5h-1zm-6.4 10.9h6.3c1.4 0 4.4-.9 4.6-3.6.2-1.6-1.2-2.6-2.7-3 1.9-.4 3.8-1.8 4-3.7.2-2.5-2.6-2.5-4.4-2.5h-4.1zM172.5 61.6l-.9 2.3c-.2-.1-.6-.2-.8-.2-.4 0-1.1.4-1.9 1.2-.7.8-1.2 1.4-1.3 1.9l-.7 2.4h-2.6l2.2-7.6h2.6l-1.1 3.3h.2c.4-.8.9-1.5 1.5-2.2.7-.8 1.5-1.2 2.2-1.2.3-.1.5 0 .6.1zM37.8 69.2h-2.6s1.3-4.2 1.4-5.2c0 0 .1-.3-.1-.2s-.7.6-1.4 1.3c-.7.8-1.1 1.3-1.1 1.6l-.7 2.4h-2.6l2.3-7.7h2.6l-1.1 3.4h.2c.4-.8.9-1.5 1.5-2.2.8-.8 1.5-1.2 2.2-1.2.4 0 .8.1 1 .4.1.2.4.6.1 1.5zM17.2 69.2s1.3-4.3 1.4-5.2c0 0 .1-.3-.1-.2s-.7.6-1.4 1.4-1 1.3-1.1 1.6l-.7 2.4h-2.6l3.1-10.7h2.6c-.6 2.2-1.2 4.2-2.1 6.4h.2c.4-.8.9-1.5 1.5-2.2.8-.8 1.5-1.2 2.2-1.2.4 0 .8.1 1 .4.2.2.4.6.2 1.5l-1.6 5.8zM107.1 69.2s1.3-4.3 1.4-5.2c0 0 .1-.3-.1-.2s-.7.6-1.4 1.3c-.7.8-1 1.3-1.1 1.6l-.7 2.4h-2.6l3.1-10.7h2.6c-.6 2.2-1.2 4.2-2.1 6.4h.2c.4-.8.9-1.5 1.5-2.2.8-.8 1.5-1.2 2.2-1.2.4 0 .8.1 1 .4.2.2.4.6.2 1.5l-1.6 5.8z"/></g><path fill="red" d="M19.3 50H0l9.6-16.7h19.2zM38.4 50h19.3L48 33.3H28.8zM38.4 16.6 28.8 0l-9.5 16.6 9.5 16.7z"/><path d="M66.3 42.9h7.8v-2.8h-7.8v-3.5H75v-2.8H63V50h12.2v-2.9h-8.9zM66.1 19.1l3.4 12.1h3.1l3.5-12.1v12.1h3V15h-4.6l-3.4 11.3L67.7 15H63v16.2h3.1zM137 15h3.3v16.2H137zM139.7 33.8h3.3V50h-3.3zM169.1 15h3.3v16.2h-3.3zM80.4 15h3.3v16.2h-3.3zM164.6 21.3h-6.5V15h-3.2v16.2h3.2v-7h6.5v7h3.2V15h-3.2zM88.5 31.2h3.3V17.8h3.9V15H84.6v2.8h3.9zM118 50h3.3V36.6h4v-2.8H114v2.8h4zM115.8 31.6c4.1 0 6.4-1.9 6.4-5.5V15H119v11.4c0 1.3-1.1 2.6-3.2 2.6-2.5 0-3.2-1.3-3.2-2.6V15h-3.2v11.1c0 3.9 2.5 5.5 6.4 5.5zM91.4 42.9h7.7v-2.8h-7.7v-3.5h8.6v-2.8H88.1V50H100.2v-2.9h-8.8zM126.7 31.2h4.6c3 0 4.8-1.9 4.8-4.3 0-2.1-1.4-3.8-3.1-4.2 1.4-.3 2.6-1.9 2.6-3.6 0-2.4-1.8-4-5-4h-7.2v16.2zm3.7-2.5h-3.8V24h3.7c1.4 0 2.6.8 2.6 2.4 0 1.3-1 2.3-2.5 2.3zm.2-11.1c.9 0 2 .8 2 2 0 .9-.7 2.1-2.1 2.1h-3.8v-3.9zM135.9 42.3c1.3-.4 2.9-1.6 2.9-3.9 0-2.9-2-4.5-5.3-4.5h-7.4V50h3.3v-6.4h2.8c1.6 0 2.6.8 2.9 2.1.3 1.2.2 3.2.5 4.3h3.3c-.3-1.2-.5-2.9-.6-4.2-.2-2.3-1.3-3.1-2.4-3.5zm-6.6-1.3v-4.4h4c1.3 0 2.2.9 2.2 2.2 0 .9-.8 2.2-2.2 2.2zM79.5 33.8h-3.3V50H87.1v-2.9h-7.6zM101.2 24.4c2.6.4 4.1.9 4.1 2.5 0 1-1 2.1-3.2 2.1s-3.3-1.2-3.3-2.7h-3.1c0 2.8 1.9 5.4 6.6 5.4s6.5-2.4 6.5-5.2c0-2.6-1.6-4.1-4.6-4.7-2.9-.5-4.8-.7-4.8-2.5 0-1.2 1.1-2 2.9-2 1.9 0 2.9.9 2.9 2.5h3.2c0-2.6-2-5.2-6.2-5.2-3 0-6.1 1.8-6.1 4.9-.1 2.6 1.9 4.2 5.1 4.9zM146.6 24.4c2.6.4 4.1.9 4.1 2.5 0 1-1 2.1-3.2 2.1s-3.3-1.2-3.3-2.7h-3.1c0 2.8 1.9 5.4 6.6 5.4s6.5-2.4 6.5-5.2c0-2.6-1.6-4.1-4.6-4.7-2.9-.5-4.8-.7-4.8-2.5 0-1.2 1.1-2 2.9-2 1.9 0 2.9.9 2.9 2.5h3.2c0-2.6-2-5.2-6.2-5.2-3 0-6 1.8-6 4.9-.3 2.6 1.7 4.2 5 4.9z"/><path d="M107.6 47.5c-2.6 0-4.1-2.6-4.1-5.7s1.4-5.7 4.1-5.7c2 0 3 1.2 3.5 2.8h3.4c-.5-3.2-3-5.5-6.9-5.5-4.9 0-7.4 3.8-7.4 8.4s2.6 8.4 7.4 8.4c3.9 0 6.5-2.3 7-5.7h-3.4c-.7 1.7-1.8 3-3.6 3zM151.2 47.5c-2.6 0-4.1-2.6-4.1-5.7s1.4-5.7 4.1-5.7c2 0 3 1.2 3.5 2.8h3.4c-.5-3.2-3-5.5-7-5.5-4.9 0-7.4 3.8-7.4 8.4s2.6 8.4 7.4 8.4c3.9 0 6.5-2.3 7-5.7h-3.4c-.5 1.7-1.5 3-3.5 3zM184.3 15h1v54.1h-1zM243.8 44.7h-3.1v14.9h3.1zM200.1 48.5l3.2 11.1H206.2l3.2-11.1v11.1h2.8V44.7h-4.3l-3.1 10.5-3.2-10.5h-4.3v14.9h2.8zM220.1 44.3c2 0 7 .8 7 7.7s-5 7.6-7 7.6-7-.8-7-7.7c0-6.7 5.1-7.6 7-7.6zm0 12.8c1.6 0 4-1 4-5.2s-2.4-5.2-4-5.2-4 1-4 5.2 2.4 5.2 4 5.2zM231 59.6h4.3c2.8 0 4.5-1.6 4.5-4 0-1.9-1.3-3.5-2.9-3.9 1.3-.3 2.4-1.6 2.4-3.3 0-2.2-1.6-3.7-4.6-3.7h-6.8v14.9zm3.4-2.3h-3.5V53h3.5c1.2 0 2.4.7 2.4 2.2 0 1.2-1 2.1-2.4 2.1zm.3-10.3c.8 0 1.8.7 1.8 1.8 0 .9-.6 1.9-2 1.9h-3.6V47zM248.2 44.7h-2.9v14.9h10V57h-7.1zM259.3 44.7h-3.1v14.9h3.1zM263.9 59.6h3.1V47.2h3.6v-2.5h-10.4v2.5h3.7zM279.4 59.6h-3.1v-5.7l-5.2-9.3h3.7l3.1 6.5 3-6.5h3.5l-5 9.4zM325.9 52.4c1.3-.4 2.7-1.5 2.7-3.6 0-2.7-1.9-4.2-4.8-4.2H317v14.9h3.1v-5.9h2.6c1.5 0 2.4.8 2.7 1.9s.2 2.9.5 4h3.1c-.3-1.1-.5-2.7-.5-3.9-.4-2-1.5-2.8-2.6-3.2zm-5.9-1.2v-4.1h3.6c1.2 0 2.1.8 2.1 2.1 0 .8-.7 2.1-2 2.1zM365.5 52.4c1.3-.4 2.7-1.5 2.7-3.6 0-2.7-1.9-4.2-4.8-4.2h-6.9v14.9h3v-5.9h2.6c1.5 0 2.4.8 2.7 1.9s.2 2.9.5 4h3.1c-.3-1.1-.5-2.7-.5-3.9-.4-2-1.4-2.8-2.4-3.2zm-6.1-1.2v-4.1h3.7c1.2 0 2.1.8 2.1 2.1 0 .8-.7 2.1-2 2.1zM295.1 57.3c-2.5 0-3.9-2.4-3.9-5.3s1.3-5.3 3.9-5.3c1.9 0 2.8 1.1 3.2 2.6h3.2c-.5-2.9-2.8-5.2-6.5-5.2-4.5 0-6.9 3.5-6.9 7.8s2.4 7.8 6.9 7.8c3.6 0 6-2.1 6.5-5.3h-3.2c-.3 1.7-1.3 2.8-3.2 2.9zM394 44.7h-3v14.9h3zM383.4 59.6h3.1V47.2h3.6v-2.5h-10.4v2.5h3.7zM309 44.3c2 0 7 .8 7 7.7s-5 7.7-7 7.7-7-.8-7-7.7 5.1-7.7 7-7.7zm0 12.8c1.6 0 4-1 4-5.2s-2.4-5.2-4-5.2-4 1-4 5.2 2.4 5.2 4 5.2zM348.5 44.3c2 0 7 .8 7 7.7s-5 7.7-7 7.7-7-.8-7-7.7 5-7.7 7-7.7zm0 12.8c1.6 0 4-1 4-5.2s-2.4-5.2-4-5.2-4 1-4 5.2 2.3 5.2 4 5.2zM401.9 44.3c2 0 7 .8 7 7.7s-5 7.7-7 7.7-7-.8-7-7.7 5.1-7.7 7-7.7zm0 12.8c1.6 0 4-1 4-5.2s-2.4-5.2-4-5.2-4 1-4 5.2 2.4 5.2 4 5.2zM332.7 59.6h-3.1V44.8h6.7c2.9 0 4.5 1.9 4.5 4.7 0 1.3-.7 4.7-4.6 4.7h-3.5zm2.8-7.9c2.3 0 2.3-1.6 2.3-2.3 0-1.4-.8-2.1-2.7-2.1h-2.5v4.3c.1.1 2.9.1 2.9.1zM371.8 59.6h-3.2l5.3-14.8h3.5l5.2 14.8h-3.3l-.9-3.1H373zm1.7-5.7h3.7l-1.9-5.9zM419 44.8h2.8v14.8h-3.1L412.9 49h-.1v10.6h-2.9V44.8h3.3l5.7 10.3h.1zM200.1 28.5l3.2 11.1H206.2l3.2-11.1v11.1h2.8V24.7h-4.3l-3.1 10.5-3.2-10.5h-4.3v14.9h2.8zM269.4 24.7h-3v14.9h3zM299.3 24.7h-2.9v14.9h2.9zM216.7 24.7h-3v14.9h3zM292 30.5h-5.9v-5.8h-3v14.9h3v-6.5h5.9v6.5h3V24.7h-3zM221.3 39.6h2.9V27.2h3.8v-2.5H217.6v2.5h3.7zM246.8 40c3.8 0 6-1.8 6-5V24.7h-3v10.6c0 1.3-1.1 2.4-3 2.4-2.3 0-2.9-1.2-2.9-2.4V24.7h-3V35c0 3.6 2.2 5 5.9 5zM256.7 39.6h4.3c2.8 0 4.5-1.6 4.5-4 0-1.9-1.3-3.5-2.9-3.9 1.3-.3 2.4-1.6 2.4-3.3 0-2.2-1.6-3.7-4.6-3.7h-6.8v14.9zm3.4-2.3h-3.5V33h3.5c1.2 0 2.4.7 2.4 2.2 0 1.2-1.1 2.1-2.4 2.1zm.2-10.3c.8 0 1.8.7 1.8 1.8 0 .9-.6 1.9-2 1.9h-3.6V27zM233.1 33.3c2.5.4 3.8.8 3.8 2.4 0 1-1 2-3 2s-3.1-1.1-3.1-2.5h-2.9c0 2.6 1.6 5 6.1 5 4.4 0 6-2.3 6-4.7s-1.5-3.8-4.3-4.4c-2.7-.5-4.5-.6-4.5-2.3 0-1.1 1-1.9 2.7-1.9 1.8 0 2.7.8 2.7 2.3h2.9c0-2.4-1.8-4.7-5.8-4.7-2.8 0-5.6 1.5-5.6 4.5.2 2.3 2 3.8 5 4.3zM275.2 33.3c2.5.4 3.8.8 3.8 2.4 0 1-.9 2-3 2s-3.1-1.1-3.1-2.5H270c0 2.6 1.6 5 6.1 5s6-2.3 6-4.7-1.5-3.8-4.3-4.4c-2.7-.5-4.5-.6-4.5-2.3 0-1.1 1-1.9 2.7-1.9 1.8 0 2.7.8 2.7 2.3h2.9c0-2.4-1.8-4.7-5.8-4.7-2.8 0-5.6 1.5-5.6 4.5.2 2.3 1.9 3.8 5 4.3zM310 33h7.2v-2.6H310v-3.2h8v-2.5h-11v14.9h11.2V37H310zM333 33h7.1v-2.6H333v-3.2h8.1v-2.5h-11.2v14.9h11.4V37H333zM322 24.7h-3v14.9h10V37h-7z"/><path d="M348.2 37.3c-2.5 0-3.9-2.4-3.9-5.3s1.3-5.3 3.9-5.3c1.9 0 2.8 1.1 3.2 2.6h3.2c-.5-2.9-2.8-5.2-6.5-5.2-4.5 0-6.9 3.5-6.9 7.8s2.4 7.8 6.9 7.8c3.6 0 6-2.1 6.5-5.3h-3.2c-.3 1.7-1.4 2.8-3.2 2.9zM389.1 37.3c-2.5 0-3.9-2.4-3.9-5.3s1.3-5.3 3.9-5.3c1.9 0 2.8 1.1 3.2 2.6h3.2c-.5-2.9-2.8-5.2-6.5-5.2-4.6 0-6.9 3.5-6.9 7.8s2.4 7.8 6.9 7.8c3.6 0 6-2.1 6.5-5.3h-3.2c-.5 1.7-1.4 2.8-3.2 2.9zM374.6 32.4c1.3-.4 2.7-1.5 2.7-3.6 0-2.7-1.9-4.2-4.8-4.2h-6.8v14.9h3v-5.9h2.6c1.5 0 2.4.8 2.7 1.9s.2 2.9.5 4h3.1c-.3-1.1-.5-2.7-.5-3.9-.3-2-1.3-2.8-2.5-3.2zm-5.9-1.1v-4.1h3.6c1.2 0 2.1.8 2.1 2.1 0 .8-.7 2.1-2 2.1zM381.2 24.7h-3.1v14.9h3.1zM358 39.6h3V27.2h3.8v-2.5h-10.5v2.5h3.7z"/><path d="M358 39.6h3V27.2h3.8v-2.5h-10.5v2.5h3.7z"/></svg>